# AST/ASF file generated using VICON BodyLanguage
# -----------------------------------------------
:version 1.10
:name VICON
:units
  mass 1.0
  length 0.45
  angle deg
:documentation
   .ast/.asf automatically generated from VICON data using
   VICON BodyBuilder and BodyLanguage model FoxedUp or BRILLIANT.MOD
:root
   order TX TY TZ RX RY RZ
   axis XYZ
   position 0 0 0  
   orientation 0 0 0 
:bonedata
  begin
     id 1 
     name lhipjoint
     direction 0.677091 -0.635792 0.370561 
     length 2.74323 
     axis 0 0 0  XYZ
  end
  begin
     id 2 
     name lfemur
     direction 0.34202 -0.939693 0  
     length 7.44995  
     axis 0 0 20  XYZ
    dof rx ry rz
    limits (-160.0 20.0)
           (-70.0 70.0)
           (-60.0 70.0)
  end
  begin
     id 3 
     name ltibia
     direction 0.34202 -0.939693 0   
     length 7.34467   
     axis 0 0 20   XYZ
    dof rx
    limits (-10.0 170.0)
  end
  begin
     id 4 
     name lfoot
     direction 0.101953 -0.280114 0.954537   
     length 1.72105   
     axis -90 7.62852e-016 20   XYZ
    dof rx rz
    limits (-45.0 90.0)
           (-70.0 20.0)
  end
  begin
     id 5 
     name ltoes
     direction 1.53537e-011 -4.21915e-011 1   
     length 0.865872   
     axis -90 7.62852e-016 20   XYZ
    dof rx
    limits (-90.0 20.0)
  end
  begin
     id 6 
     name rhipjoint
     direction -0.695735 -0.620586 0.361699   
     length 2.81045  
     axis 0 0 0  XYZ 
  end
  begin
     id 7 
     name rfemur
     direction -0.34202 -0.939693 0   
     length 7.29387   
     axis 0 0 -20   XYZ
    dof rx ry rz
    limits (-160.0 20.0)
           (-70.0 70.0)
           (-70.0 60.0)
  end
  begin
     id 8 
     name rtibia
     direction -0.34202 -0.939693 0   
     length 7.44935   
     axis 0 0 -20   XYZ
    dof rx
    limits (-10.0 170.0)
 end
 begin
     id 9 
     name rfoot
     direction -0.104163 -0.286184 0.952496   
     length 1.77731  
     axis -90 -7.62852e-016 -20   XYZ
    dof rx rz
    limits (-45.0 90.0)
           (-20.0 70.0)
  end
  begin
     id 10 
     name rtoes
     direction -1.5355e-011 -4.21888e-011 1   
     length 0.892424   
     axis -90 -7.62852e-016 -20   XYZ
    dof rx
    limits (-90.0 20.0)
  end
  begin
     id 11 
     name lowerback
     direction 0.0100202 0.997226 -0.0737589   
     length 2.16892   
     axis 0 0 0   XYZ
    dof rx ry rz
    limits (-20.0 45.0)
           (-30.0 30.0)
           (-30.0 30.0)
  end
  begin
     id 12 
     name upperback
     direction 0.00432398 0.999988 -0.00215019   
     length 2.17326   
     axis 0 0 0   XYZ
    dof rx ry rz
    limits (-20.0 45.0)
           (-30.0 30.0)
           (-30.0 30.0)
  end
  begin
     id 13 
     name thorax
     direction -0.00195047 0.999485 0.0320434   
     length 2.18139   
     axis 0 0 0   XYZ
    dof rx ry rz
    limits (-20.0 45.0)
           (-30.0 30.0)
           (-30.0 30.0)
  end
  begin
     id 14 
     name lowerneck
     direction 0.00782762 0.986241 0.165128   
     length 1.88415   
     axis 0 0 0   XYZ
    dof rx ry rz
    limits (-20.0 45.0)
           (-30.0 30.0)
           (-30.0 30.0)
  end
  begin
     id 15 
     name upperneck
     direction 0.00988667 0.981098 -0.193258   
     length 1.9242   
     axis 0 0 0   XYZ
    dof rx ry rz
    limits (-20.0 45.0)
           (-30.0 30.0)
           (-30.0 30.0)
  end
  begin
     id 16
     name head
     direction 0.00252199 0.996513 -0.0833958  
     length 1.93887  
     axis 0 0 0   XYZ
    dof rx ry rz
    limits (-20.0 45.0)
           (-30.0 30.0)
           (-30.0 30.0)
  end
  begin
     id 17 
     name lclavicle
     direction 0.929492 0.368193 -0.0218667  
     length 3.5955  
     axis 0 0 0   XYZ
    dof ry rz
    limits (-20.0 10.0)
           (0.0 20.0)
  end
  begin
     id 18 
     name lhumerus
     direction 1 -4.48972e-011 1.41911e-027   
     length 5.2795   
     axis 180 -30 -90   XYZ
    dof rx ry rz
    limits (-60.0 90.0)
           (-90.0 90.0)
           (-90.0 90.0)
  end
  begin
     id 19
     name lradius
     direction 1 -4.48963e-011 7.05772e-027   
     length 3.53504   
     axis 180 -30 -90   XYZ
    dof rx
    limits (-10.0 170.0)
  end
  begin
     id 20
     name lwrist
     direction 1 -4.48957e-011 9.54866e-027   
     length 1.76752   
     axis -7.69462e-015 90 90   XYZ
    dof ry
    limits (-180.0 0.0)
 end
  begin
     id 21 
     name lhand
     direction 1 -4.48979e-011 1.90973e-026   
     length 0.667948   
     axis -1.21857e-014 90 90   XYZ
    dof rx rz
    limits (-90.0 90.0)
           (-45.0 45.0)
  end
  begin
     id 22 
     name lfingers
     direction 1 -4.48987e-011 3.81946e-026   
     length 0.538517   
     axis -2.43714e-014 90 90   XYZ
    dof rx
    limits (0.0 90.0)
  end
  begin
     id 23
     name lthumb
     direction 0.707107 -6.34962e-011 0.707107   
     length 0.773206   
     axis -90 45 2.85299e-015   XYZ
    dof rx rz
    limits (-45.0 45.0)
           (-45.0 45.0)
  end
  begin
     id 24 
     name rclavicle
     direction -0.898763 0.414256 -0.143584   
     length 3.5176  
     axis 0 0 0   XYZ 
    dof ry rz
    limits (-10.0 20.0)
           (-20.0 0.0)
  end
  begin
     id 25 
     name rhumerus
     direction -1 -4.48971e-011 1.129e-027  
     length 5.25035   
     axis 180 30 90   XYZ
    dof rx ry rz
    limits (-90.0 60.0)
           (-90.0 90.0)
           (-90.0 90.0)
  end
  begin
     id 26 
     name rradius
     direction -1 -4.48955e-011 6.34664e-027   
     length 3.58884   
     axis 180 30 90   XYZ
    dof rx
    limits (-10.0 170.0)
  end
  begin
     id 27 
     name rwrist
     direction -1 -4.48966e-011 9.54866e-027   
     length 1.79442   
     axis -7.69462e-015 -90 -90   XYZ
    dof ry
    limits (-180.0 0.0)
  end
  begin
     id 28
     name rhand
     direction -1 -4.48973e-011 1.90973e-026   
     length 0.779235   
     axis -1.21857e-014 -90 -90   XYZ
    dof rx rz
    limits (-90.0 90.0)
           (-45.0 45.0)
  end
  begin
     id 29
     name rfingers
     direction -1 -4.48984e-011 3.81946e-026   
     length 0.62824   
     axis -2.43714e-014 -90 -90   XYZ
    dof rx
    limits (0.0 90.0)
  end
  begin
     id 30
     name rthumb
     direction -0.707107 -6.34968e-011 0.707107   
     length 0.90203   
     axis -90 -45 -2.85299e-015   XYZ
    dof rx rz
    limits (-45.0 45.0)
           (-45.0 45.0)
  end
:hierarchy
  begin
    root lhipjoint rhipjoint lowerback
    lhipjoint lfemur
    lfemur ltibia
    ltibia lfoot
    lfoot ltoes
    rhipjoint rfemur
    rfemur rtibia
    rtibia rfoot
    rfoot rtoes
    lowerback upperback
    upperback thorax
    thorax lowerneck lclavicle rclavicle
    lowerneck upperneck
    upperneck head
    lclavicle lhumerus
    lhumerus lradius
    lradius lwrist
    lwrist lhand lthumb
    lhand lfingers
    rclavicle rhumerus
    rhumerus rradius
    rradius rwrist
    rwrist rhand rthumb
    rhand rfingers
  end

#!OML:ASF I:\Random Stuff\random\construction\7_22_03\Session 2\subj1.ASF
:FULLY-SPECIFIED
:DEGREES
339
root 3.79282 17.7657 -7.50778 15.1389 -27.4602 -2.61794
lowerback 7.08622 -0.112939 3.38345
upperback 2.34482 0.0581887 -0.439803
thorax -1.54608 0.0272415 -2.35891
lowerneck -19.7196 0.859481 -2.09924
upperneck 46.3548 0.515737 2.16599
head 23.2218 -0.146493 1.65976
rclavicle -2.25621e-014 -9.14409e-015
rhumerus -17.6104 41.0789 -73.5379
rradius 71.6871
rwrist 20.1164
rhand -39.8644 28.4087
rfingers 7.12502
rthumb -12.8371 -1.17658
lclavicle -2.25621e-014 -9.14409e-015
lhumerus -20.5094 -51.4661 103.597
lradius 75.8081
lwrist 41.6902
lhand -20.8709 78.5044
lfingers 7.12502
lthumb 5.49898 -468.413
rfemur -18.6558 5.83286 17.5203
rtibia 11.6615
rfoot -5.02522 -9.43982
rtoes -12.0739
lfemur -18.2467 -12.0824 -10.0883
ltibia 20.5912
lfoot -15.3475 17.5336
ltoes -31.2515
340
root 3.79868 17.7667 -7.51728 15.2395 -27.4396 -2.53796
lowerback 7.22432 -0.153052 3.43587
upperback 2.3817 0.0115238 -0.494516
thorax -1.58752 0.00374334 -2.44138
lowerneck -19.8563 0.996229 -2.31232
upperneck 46.2773 0.790677 2.30458
head 23.1854 -0.0665659 1.84647
rclavicle 3.68746e-014 -6.16232e-015
rhumerus -17.0896 41.6897 -73.0273
rradius 71.4746
rwrist 20.2321
rhand -40.5404 29.6912
rfingers 7.12502
rthumb -13.4887 0.148002
lclavicle 3.68746e-014 -6.16232e-015
lhumerus -20.5833 -52.0717 103.776
lradius 76.1003
lwrist 44.2499
lhand -19.2753 77.5827
lfingers 7.12502
lthumb 7.03941 -467.446
rfemur -19.0063 5.58361 17.4784
rtibia 11.9285
rfoot -5.04658 -9.20405
rtoes -12.024
lfemur -18.4971 -11.9417 -10.1258
ltibia 20.6611
lfoot -15.1846 17.3527
ltoes -31.4808
341
root 3.80022 17.7704 -7.52678 15.3637 -27.4826 -2.4905
lowerback 7.30527 -0.129446 3.42703
upperback 2.47698 0.0419482 -0.536156
thorax -1.53191 0.0209312 -2.48209
lowerneck -19.9866 0.950968 -2.26925
upperneck 46.0411 0.843344 2.05408
head 23.0178 -0.0609435 1.70548
rclavicle -5.97348e-014 1.66979e-014
rhumerus -16.3935 41.941 -72.4817
rradius 71.2142
rwrist 20.8438
rhand -41.1772 31.1419
rfingers 7.12502
rthumb -14.1024 1.64043
lclavicle -5.97348e-014 1.66979e-014
lhumerus -20.4896 -52.6992 103.876
lradius 76.2653
lwrist 46.5933
lhand -16.2806 74.1028
lfingers 7.12502
lthumb 9.92945 -463.849
rfemur -19.3539 5.40597 17.466
rtibia 12.1762
rfoot -5.10288 -8.99274
rtoes -11.9554
lfemur -18.7326 -11.7437 -10.1409
ltibia 20.7469
lfoot -15.0389 17.2
ltoes -31.7337
342
root 3.79984 17.773 -7.53561 15.507 -27.543 -2.49755
lowerback 7.31764 -0.10094 3.51687
upperback 2.61883 0.0815278 -0.616364
thorax -1.38894 0.0452288 -2.61872
lowerneck -20.2536 1.0378 -2.3265
upperneck 45.9489 0.97446 2.17814
head 23.0307 -0.0044041 1.82049
rclavicle 2.97183e-014 2.04748e-014
rhumerus -15.6552 41.992 -71.9905
rradius 71.0421
rwrist 21.8826
rhand -41.6467 32.5003
rfingers 7.12502
rthumb -14.5547 3.0309
lclavicle 2.97183e-014 2.04748e-014
lhumerus -20.4307 -53.3291 103.872
lradius 76.4266
lwrist 48.3527
lhand -18.5362 78.0268
lfingers 7.12502
lthumb 7.75286 -467.865
rfemur -19.6634 5.27499 17.5002
rtibia 12.3717
rfoot -5.13503 -8.81849
rtoes -11.8997
lfemur -18.9271 -11.5659 -10.1066
ltibia 20.7957
lfoot -15.0131 17.1003
ltoes -31.5902
343
root 3.79869 17.7727 -7.54461 15.6295 -27.5772 -2.47932
lowerback 7.37887 -0.121271 3.56245
upperback 2.71611 0.0565462 -0.673016
thorax -1.32383 0.0353873 -2.70093
lowerneck -20.2636 0.992831 -2.0303
upperneck 45.7134 1.00349 1.70693
head 22.8266 0.00927618 1.50074
rclavicle 2.82274e-014 1.98785e-014
rhumerus -15.0404 42.1129 -71.505
rradius 71.0709
rwrist 23.0945
rhand -42.0186 33.546
rfingers 7.12502
rthumb -14.9131 4.10283
lclavicle 2.82274e-014 1.98785e-014
lhumerus -20.6095 -53.8191 104.042
lradius 76.6195
lwrist 49.8166
lhand -21.8829 66.3212
lfingers 7.12502
lthumb 4.52189 -456.253
rfemur -19.9592 5.14811 17.5067
rtibia 12.5864
rfoot -5.16937 -8.66192
rtoes -11.776
lfemur -19.1182 -11.3458 -10.1065
ltibia 20.8369
lfoot -14.955 16.954
ltoes -31.8089
344
root 3.7961 17.772 -7.55501 15.7501 -27.6072 -2.44459
lowerback 7.49953 -0.142263 3.50827
upperback 2.79638 0.0268552 -0.694508
thorax -1.31005 0.0215201 -2.69038
lowerneck -20.416 1.1392 -2.22004
upperneck 45.5747 1.31033 1.79325
head 22.7423 0.101896 1.65884
rclavicle -1.48095e-014 2.42517e-014
rhumerus -14.438 42.244 -71.0477
rradius 71.1216
rwrist 24.2604
rhand -42.5594 34.2804
rfingers 7.12502
rthumb -15.434 4.87662
lclavicle -1.48095e-014 2.42517e-014
lhumerus -20.8119 -54.2918 104.309
lradius 76.7796
lwrist 51.4779
lhand -18.5598 78.7262
lfingers 7.12502
lthumb 7.73007 -468.565
rfemur -20.2591 5.03926 17.5028
rtibia 12.8059
rfoot -5.23095 -8.49569
rtoes -11.7939
lfemur -19.3227 -11.0621 -10.1232
ltibia 20.8727
lfoot -14.8499 16.7599
ltoes -32.1008
345
root 3.79415 17.7728 -7.56666 15.8848 -27.6424 -2.43184
lowerback 7.64558 -0.166896 3.45037
upperback 2.89083 -0.0071559 -0.696599
thorax -1.29593 0.00549732 -2.65727
lowerneck -20.4365 1.2576 -2.19612
upperneck 45.2611 1.59516 1.61814
head 22.4614 0.199648 1.61768
rclavicle -9.93923e-015 2.60408e-014
rhumerus -13.8325 42.6272 -70.6263
rradius 71.1787
rwrist 24.867
rhand -43.5031 34.5349
rfingers 7.12502
rthumb -16.3428 5.20353
lclavicle -9.93923e-015 2.60408e-014
lhumerus -20.9917 -54.7189 104.593
lradius 76.9482
lwrist 53.6175
lhand -18.7046 79.1221
lfingers 7.12502
lthumb 7.59025 -468.966
rfemur -20.572 4.91541 17.5351
rtibia 13.0194
rfoot -5.2585 -8.36171
rtoes -12.0753
lfemur -19.5324 -10.8556 -10.1051
ltibia 20.9123
lfoot -14.7471 16.6661
ltoes -32.4098
346
root 3.79461 17.7749 -7.57928 16.0091 -27.6617 -2.38705
lowerback 7.81691 -0.188122 3.43683
upperback 2.98171 -0.0335216 -0.746817
thorax -1.29865 -0.00671444 -2.69962
lowerneck -20.6138 1.33472 -2.27263
upperneck 45.1906 1.7387 1.68333
head 22.4581 0.248756 1.7044
rclavicle 5.31749e-014 7.95139e-016
rhumerus -13.3854 43.065 -70.2838
rradius 71.3311
rwrist 24.6919
rhand -44.2417 34.6281
rfingers 7.12502
rthumb -17.0538 5.3566
lclavicle 5.31749e-014 7.95139e-016
lhumerus -21.2602 -55.1949 104.916
lradius 77.2192
lwrist 55.8914
lhand -19.2578 79.8776
lfingers 7.12502
lthumb 7.05632 -469.74
rfemur -20.8754 4.79447 17.5256
rtibia 13.1937
rfoot -5.23339 -8.28063
rtoes -12.2091
lfemur -19.7591 -10.8575 -10.0798
ltibia 20.969
lfoot -14.7921 16.6703
ltoes -32.2923
347
root 3.79581 17.776 -7.59279 16.1209 -27.6717 -2.34707
lowerback 8.00711 -0.185255 3.49336
upperback 3.09768 -0.0238997 -0.856085
thorax -1.28286 0.000231519 -2.84585
lowerneck -20.3926 1.31994 -2.12019
upperneck 45.0345 1.74108 1.46445
head 21.8694 0.274897 1.50467
rclavicle 5.725e-014 -5.56597e-015
rhumerus -13.1337 43.2198 -70.1066
rradius 71.5396
rwrist 24.0803
rhand -44.5014 35.1362
rfingers 7.12502
rthumb -17.3038 5.88648
lclavicle 5.725e-014 -5.56597e-015
lhumerus -21.4992 -55.8527 105.157
lradius 77.6094
lwrist 57.8467
lhand -19.7196 81.0711
lfingers 7.12502
lthumb 6.6105 -470.948
rfemur -21.1261 4.68142 17.5098
rtibia 13.2992
rfoot -5.22608 -8.15601
rtoes -12.1311
lfemur -19.9884 -10.8557 -10.048
ltibia 21.0502
lfoot -14.9155 16.6259
ltoes -31.9962
348
root 3.79615 17.7776 -7.60694 16.2924 -27.6551 -2.35639
lowerback 8.15988 -0.181391 3.58979
upperback 3.20705 -0.0106711 -0.951513
thorax -1.25257 0.009489 -3.00067
lowerneck -20.4777 1.3543 -1.85048
upperneck 44.7945 1.81725 1.1932
head 21.721 0.322459 1.32543
rclavicle 2.88238e-014 -1.94809e-014
rhumerus -13.0087 43.1648 -70.1478
rradius 71.6504
rwrist 23.7253
rhand -44.825 36.0661
rfingers 7.12502
rthumb -17.6152 6.84404
lclavicle 2.88238e-014 -1.94809e-014
lhumerus -21.6856 -56.6005 105.352
lradius 78.0354
lwrist 59.3837
lhand -19.6403 81.8355
lfingers 7.12502
lthumb 6.68705 -471.71
rfemur -21.385 4.48734 17.5701
rtibia 13.3389
rfoot -5.20315 -7.9543
rtoes -12.1084
lfemur -20.2837 -10.6516 -9.99477
ltibia 21.1502
lfoot -14.8815 16.4782
ltoes -32.2364
349
root 3.79602 17.7808 -7.62011 16.5366 -27.5981 -2.38224
lowerback 8.269 -0.184373 3.69979
upperback 3.27642 -0.00539332 -1.02314
thorax -1.24001 0.0141143 -3.13781
lowerneck -20.6211 1.36679 -1.72488
upperneck 44.7325 1.81643 1.13627
head 21.7233 0.338805 1.27365
rclavicle -5.22804e-014 -4.77083e-015
rhumerus -12.9351 42.8864 -70.288
rradius 71.6918
rwrist 24.0584
rhand -45.1132 36.8075
rfingers 7.12502
rthumb -17.8926 7.61055
lclavicle -5.22804e-014 -4.77083e-015
lhumerus -21.9511 -57.3714 105.656
lradius 78.4934
lwrist 60.4967
lhand -19.4341 82.0578
lfingers 7.12502
lthumb 6.88615 -471.926
rfemur -21.6804 4.29624 17.6464
rtibia 13.3147
rfoot -5.10551 -7.80674
rtoes -12.0658
lfemur -20.6718 -10.3964 -9.91788
ltibia 21.2614
lfoot -14.7563 16.2882
ltoes -32.669
350
root 3.79509 17.7848 -7.63196 16.7649 -27.5477 -2.40914
lowerback 8.39844 -0.333915 3.63355
upperback 3.34278 -0.203318 -0.915275
thorax -1.25873 -0.0851158 -2.97032
lowerneck -20.721 1.52719 -1.98114
upperneck 44.5607 2.23596 1.06572
head 21.6089 0.442649 1.37822
rclavicle 4.96962e-014 -2.34566e-014
rhumerus -12.5713 43.1047 -70.0447
rradius 71.9129
rwrist 24.4304
rhand -45.1644 37.1393
rfingers 7.12502
rthumb -17.9418 7.94693
lclavicle 4.96962e-014 -2.34566e-014
lhumerus -22.0446 -57.5408 105.938
lradius 78.9466
lwrist 61.1696
lhand -19.7238 82.3724
lfingers 7.12502
lthumb 6.60644 -472.249
rfemur -21.9259 4.22171 17.6958
rtibia 13.2458
rfoot -4.97307 -7.7355
rtoes -12.1689
lfemur -21.0232 -10.2017 -9.8366
ltibia 21.3611
lfoot -14.661 16.1324
ltoes -33.0495
351
root 3.7941 17.7889 -7.64477 16.992 -27.4948 -2.422
lowerback 8.5107 -0.626614 3.3574
upperback 3.39848 -0.603617 -0.608491
thorax -1.2897 -0.287773 -2.45848
lowerneck -20.6762 1.77737 -2.41244
upperneck 44.2345 3.01482 0.688088
head 21.331 0.611978 1.42889
rclavicle 9.74045e-015 -2.06736e-014
rhumerus -11.891 43.9995 -69.4379
rradius 72.1723
rwrist 24.3425
rhand -45.3073 37.645
rfingers 7.12502
rthumb -18.0793 8.46521
lclavicle 9.74045e-015 -2.06736e-014
lhumerus -21.8838 -57.124 106.17
lradius 79.2865
lwrist 61.4767
lhand -20.1466 82.7665
lfingers 7.12502
lthumb 6.19829 -472.656
rfemur -22.1625 4.17386 17.7265
rtibia 13.1564
rfoot -4.87541 -7.67689
rtoes -12.1911
lfemur -21.3649 -10.2132 -9.72661
ltibia 21.4406
lfoot -14.5985 16.1589
ltoes -33.2018
352
root 3.79468 17.792 -7.65792 17.2375 -27.4032 -2.41301
lowerback 8.60271 -0.788432 3.25685
upperback 3.44698 -0.820835 -0.468577
thorax -1.30198 -0.397026 -2.23558
lowerneck -20.6903 1.91904 -2.62379
upperneck 44.0453 3.43557 0.483926
head 21.1875 0.709342 1.45312
rclavicle 1.78906e-015 1.23246e-014
rhumerus -11.5051 44.4471 -69.1768
rradius 72.35
rwrist 23.9126
rhand -45.8788 38.755
rfingers 7.12502
rthumb -18.6291 9.62701
lclavicle 1.78906e-015 1.23246e-014
lhumerus -21.8239 -57.3089 106.459
lradius 79.4926
lwrist 61.5376
lhand -20.4047 83.0735
lfingers 7.12502
lthumb 5.9491 -472.97
rfemur -22.4214 4.05841 17.7448
rtibia 13.0489
rfoot -4.77969 -7.62
rtoes -11.9165
lfemur -21.7548 -10.4005 -9.59414
ltibia 21.5131
lfoot -14.5291 16.3281
ltoes -33.1621
